<?xml version="1.0" standalone="no"?>
<!DOCTYPE svg PUBLIC "-//W3C//DTD SVG 20010904//EN"
 "http://www.w3.org/TR/2001/REC-SVG-20010904/DTD/svg10.dtd">
<svg version="1.0" xmlns="http://www.w3.org/2000/svg"
 width="1920.000000pt" height="1229.000000pt" viewBox="0 0 1920.000000 1229.000000"
 preserveAspectRatio="xMidYMid meet">

<g transform="translate(0.000000,1229.000000) scale(0.100000,-0.100000)"
fill="#000000" stroke="none">
<path d="M17268 1293 c7 -3 16 -2 19 1 4 3 -2 6 -13 5 -11 0 -14 -3 -6 -6z"/>
<path d="M17534 1175 c-4 -8 -10 -15 -16 -15 -5 0 -6 5 -3 10 3 6 2 10 -3 10
-19 0 -21 -14 -5 -32 9 -10 11 -18 6 -18 -6 0 -16 7 -23 15 -8 10 -24 14 -42
11 -34 -5 -50 -16 -25 -16 10 0 16 -4 15 -9 -3 -9 811 -841 823 -841 22 0 43
70 45 155 4 129 -19 173 -175 332 -97 98 -125 121 -143 117 -18 -3 -19 -3 -5
4 16 7 15 10 -10 34 -21 20 -32 25 -43 18 -8 -5 -26 -10 -40 -10 -19 0 -21 3
-11 9 8 5 20 7 26 5 17 -7 27 22 12 34 -25 19 -37 23 -37 12 0 -6 10 -15 23
-20 l22 -9 -22 0 c-12 -1 -29 9 -37 21 -16 23 -12 43 6 32 7 -5 8 -2 4 5 -6 9
-12 9 -25 -3 -16 -15 -91 -18 -91 -3 0 4 5 7 10 7 6 0 10 5 10 10 0 6 -14 10
-31 10 -28 0 -89 33 -97 52 -2 4 -20 8 -40 8 -20 0 -42 4 -48 8 -17 11 -26 60
-11 65 9 4 9 6 -1 6 -7 1 -15 -6 -18 -14z m-64 -45 c0 -5 -2 -10 -4 -10 -3 0
-8 5 -11 10 -3 6 -1 10 4 10 6 0 11 -4 11 -10z m17 -32 c-3 -8 -6 -5 -6 6 -1
11 2 17 5 13 3 -3 4 -12 1 -19z m360 -110 c-3 -8 -6 -5 -6 6 -1 11 2 17 5 13
3 -3 4 -12 1 -19z"/>
<path d="M17690 1110 c8 -5 20 -10 25 -10 6 0 3 5 -5 10 -8 5 -19 10 -25 10
-5 0 -3 -5 5 -10z"/>
<path d="M17805 1080 c3 -5 8 -10 11 -10 2 0 4 5 4 10 0 6 -5 10 -11 10 -5 0
-7 -4 -4 -10z"/>
<path d="M18210 903 c0 -6 8 -17 18 -24 16 -13 16 -13 2 6 -8 11 -16 22 -17
24 -2 2 -3 0 -3 -6z"/>
<path d="M18291 836 c-8 -10 -6 -17 11 -32 14 -11 18 -13 11 -3 -9 11 -9 19
-2 26 7 7 7 13 1 17 -5 3 -15 0 -21 -8z"/>
<path d="M18340 781 c0 -5 6 -12 13 -14 9 -4 8 -6 -2 -6 -10 -1 -7 -7 8 -20
12 -11 21 -21 20 -23 -1 -2 8 -23 20 -47 33 -63 36 -83 36 -216 0 -119 -1
-121 -38 -195 l-37 -75 92 -92 c90 -91 94 -93 139 -93 l47 0 118 126 c126 133
178 200 170 220 -3 7 -1 14 4 16 5 2 12 23 16 47 5 32 4 42 -4 37 -7 -4 -12
-3 -12 3 0 5 6 12 13 14 7 4 6 6 -4 6 -9 1 -19 -9 -22 -21 -4 -12 -9 -19 -12
-16 -4 3 -1 16 5 28 6 11 9 26 6 33 -2 7 -8 2 -11 -10 -8 -26 -35 -31 -35 -7
0 8 4 12 10 9 6 -3 7 1 4 9 -4 10 -18 16 -35 16 -16 0 -29 4 -29 8 0 12 -47
32 -75 32 -16 0 -25 6 -25 16 0 26 -27 44 -66 44 -43 0 -113 29 -114 48 0 17
-18 15 -22 -3 -5 -22 -78 32 -78 58 0 15 -5 18 -24 15 -16 -3 -27 0 -30 9 -9
21 -7 25 6 17 7 -4 8 -3 4 5 -4 6 -12 9 -17 6 -5 -4 -12 1 -15 9 -7 17 -24 22
-24 7z"/>
<path d="M18923 541 c0 -11 5 -18 9 -15 4 3 5 11 1 19 -7 21 -12 19 -10 -4z"/>
<path d="M18935 500 c-3 -5 -1 -10 4 -10 6 0 11 5 11 10 0 6 -2 10 -4 10 -3 0
-8 -4 -11 -10z"/>
<path d="M19150 338 c0 -29 10 -42 35 -52 16 -6 18 -5 8 5 -7 7 -13 21 -13 32
0 10 -4 15 -10 12 -6 -3 -7 1 -4 9 3 9 1 16 -5 16 -6 0 -11 -10 -11 -22z"/>
<path d="M19048 272 c-31 -65 -53 -94 -135 -175 l-98 -97 193 0 192 0 0 135
c0 102 -3 135 -13 135 -18 0 -67 48 -67 65 0 8 -8 15 -18 15 -12 0 -29 -23
-54 -78z m62 52 c0 -8 -5 -12 -10 -9 -6 4 -8 11 -5 16 9 14 15 11 15 -7z m-12
-60 c-3 -14 -5 -12 -10 9 -3 19 -2 25 4 19 6 -6 8 -18 6 -28z"/>
</g>
</svg>
